<svg width="73" height="100" viewBox="0 0 73 100" fill="none" xmlns="http://www.w3.org/2000/svg">
<path d="M54 89.6765L54 95.7737H71.7862C72.8908 97.4179 72.8505 98.3402 71.7862 99.9844H54C62.5996 91.7274 62.5996 83.7274 54 76H71.4493C72.4796 77.6446 72.4009 78.5662 71.4493 80.2107H54V85.3984H70.203C70.7959 87.1429 70.869 88.0888 70.203 89.6765H54Z" fill="#101010"/>
<path d="M30.841 76C30.841 76 47.8853 76 49.8399 76C51.5451 77.8714 49.8399 79.8739 49.8399 79.8739C49.241 80.4728 36.6013 95.74 36.6013 95.74C36.6013 95.74 45.6291 95.74 47.8853 95.74C50.1415 95.74 51.5451 96.1105 51.5451 99.9844L49.8399 99.9844H29.9988C28.6731 98.6738 28.5244 97.8483 29.9988 96.1105L43.2374 80.2444H30.841C29.1391 78.8072 29.1391 77.4036 30.841 76Z" fill="#101010"/>
<path d="M26.5851 100H21.5996V77.0527C22.7943 75.6491 25.6014 75.6491 26.5851 77.0527V100Z" fill="#101010"/>
<path d="M0.599609 100L0.599609 76H12.2035C16.0016 76 17.9006 77.8899 17.9006 81.6696V85.6C17.9006 88.5217 16.7355 90.2957 14.4054 90.9217L18.5996 99.0957L18.0404 100H14.4054L9.9666 91.2348H4.86369V100H0.599609ZM4.86369 87.3739H12.0986C13.1239 87.3739 13.6365 86.8638 13.6365 85.8435V81.3565C13.6365 80.3594 13.1239 79.8609 12.0986 79.8609H4.86369V87.3739Z" fill="#101010"/>
<rect x="0.599609" width="72" height="9" rx="4.5" fill="#101010"/>
<path d="M36.4173 12.6779V24.5205L14.5017 65.8834H0.599609L26.1726 18.3418C28.7814 14.552 31.5433 12.6294 36.4173 12.6779Z" fill="#101010"/>
<path d="M36.1272 12.6779V24.5205L58.0428 65.8834H71.9449L46.3719 18.3418C43.763 14.552 41.0012 12.6294 36.1272 12.6779Z" fill="#101010"/>
</svg>
